<svg width="482" height="46" viewBox="0 0 482 46" fill="none" xmlns="http://www.w3.org/2000/svg">
<path d="M0 45.035V0H14.6745C19.9853 0 24.5973 0.772028 28.5105 2.31608C32.4703 3.81725 35.5216 6.21912 37.6646 9.52168C39.8541 12.7814 40.9489 17.0918 40.9489 22.4531C40.9489 25.8844 40.4132 28.9939 39.3417 31.7818C38.3168 34.5268 36.7562 36.9072 34.6598 38.9231C32.61 40.896 30.0245 42.4186 26.9033 43.4909C23.8286 44.5203 20.2648 45.035 16.2118 45.035H0ZM6.35896 40.0811H15.4432C19.3564 40.0811 22.7106 39.5021 25.5057 38.3441C28.3474 37.1431 30.5137 35.2559 32.0044 32.6825C33.5418 30.0662 34.3104 26.6564 34.3104 22.4531C34.3104 19.6224 33.9377 17.1347 33.1924 14.9902C32.447 12.8028 31.2823 10.9585 29.6984 9.45734C28.1611 7.95618 26.1812 6.81958 23.7587 6.04756C21.3829 5.27553 18.5178 4.88951 15.1637 4.88951H6.35896V40.0811Z" fill="#71717a"/>
<path d="M43.5349 45.035L63.101 0H70.7876L90.4235 45.035H83.3658L68.2021 8.74965C67.9692 8.14919 67.7363 7.57016 67.5033 7.01259C67.2704 6.45501 67.0375 5.89744 66.8045 5.33986C66.6182 5.89744 66.3853 6.45501 66.1058 7.01259C65.8728 7.57016 65.6399 8.14919 65.407 8.74965L50.2433 45.035H43.5349ZM54.7854 31.6531V26.7636H78.7538V31.6531H54.7854Z" fill="#71717a"/>
<path d="M103.58 45.035V4.88951H86.6697V0H126.78V4.88951H109.939V45.035H103.58Z" fill="#71717a"/>
<path d="M146.367 45.035V4.88951H129.457V0H169.567V4.88951H152.726V45.035H146.367Z" fill="#71717a"/>
<path d="M165.891 45.035L185.457 0H193.144L212.779 45.035H205.722L190.558 8.74965C190.325 8.14919 190.092 7.57016 189.859 7.01259C189.626 6.45501 189.393 5.89744 189.16 5.33986C188.974 5.89744 188.741 6.45501 188.462 7.01259C188.229 7.57016 187.996 8.14919 187.763 8.74965L172.599 45.035H165.891ZM177.141 31.6531V26.7636H201.11V31.6531H177.141Z" fill="#71717a"/>
<path d="M244.13 41.5608V10.1007H249.231V41.5608H244.13ZM230.155 28.0504V23.4825H263.277V28.0504H230.155Z" fill="#71717a"/>
<path d="M288.727 45.035V0H307.804C310.879 0 313.581 0.407459 315.91 1.22238C318.239 2.03729 320.056 3.28112 321.36 4.95385C322.665 6.58368 323.317 8.70676 323.317 11.3231C323.317 12.9529 322.944 14.4326 322.199 15.7622C321.454 17.0918 320.452 18.2284 319.194 19.172C317.983 20.1156 316.632 20.8019 315.141 21.2308C318.03 22.0457 320.312 23.4182 321.989 25.3483C323.666 27.2354 324.505 29.573 324.505 32.3608C324.505 34.8485 323.993 36.9287 322.968 38.6014C321.943 40.2312 320.545 41.518 318.775 42.4615C317.051 43.4051 315.071 44.0699 312.835 44.4559C310.646 44.842 308.363 45.035 305.987 45.035H288.727ZM295.086 40.0811H307.035C310.855 40.0811 313.627 39.4163 315.351 38.0867C317.121 36.7142 318.006 34.6984 318.006 32.0392C318.006 30.4951 317.657 29.1226 316.958 27.9217C316.306 26.6779 315.165 25.7128 313.534 25.0266C311.904 24.2974 309.644 23.9329 306.756 23.9329H295.086V40.0811ZM295.086 18.979H306.896C309.039 18.979 310.832 18.7002 312.276 18.1427C313.767 17.5851 314.885 16.7702 315.63 15.6979C316.422 14.5828 316.818 13.2746 316.818 11.7734C316.818 9.75758 316.096 8.10629 314.652 6.81958C313.255 5.53287 310.832 4.88951 307.385 4.88951H295.086V18.979Z" fill="#71717a"/>
<path d="M327.963 45.035L347.529 0H355.216L374.851 45.035H367.794L352.63 8.74965C352.397 8.14919 352.164 7.57016 351.931 7.01259C351.698 6.45501 351.465 5.89744 351.232 5.33986C351.046 5.89744 350.813 6.45501 350.534 7.01259C350.301 7.57016 350.068 8.14919 349.835 8.74965L334.671 45.035H327.963ZM339.213 31.6531V26.7636H363.182V31.6531H339.213Z" fill="#71717a"/>
<path d="M398.4 46C394.58 46 391.296 45.3352 388.547 44.0056C385.799 42.6331 383.679 40.5744 382.188 37.8294C380.744 35.0844 380.022 31.6317 380.022 27.4713V0H386.381V26.6993C386.381 30.0019 386.823 32.7254 387.709 34.8699C388.64 36.9716 389.991 38.5371 391.762 39.5664C393.578 40.5958 395.791 41.1105 398.4 41.1105C402.36 41.1105 405.365 39.9739 407.414 37.7007C409.464 35.3846 410.489 31.7175 410.489 26.6993V0H416.848V27.4713C416.848 33.6904 415.194 38.3441 411.887 41.4322C408.626 44.4774 404.13 46 398.4 46Z" fill="#71717a"/>
<path d="M428.962 45.035V0H438.885L453.559 34.2909C453.932 35.1058 454.281 35.9207 454.608 36.7357C454.98 37.5506 455.33 38.3655 455.656 39.1804C456.028 38.3226 456.378 37.5077 456.704 36.7357C457.03 35.9207 457.356 35.1058 457.682 34.2909L472.217 0H482V45.035H475.711V11.1944C475.711 10.2508 475.711 9.32867 475.711 8.42798C475.711 7.48439 475.711 6.54079 475.711 5.5972L459.08 45.035H451.952L435.251 5.66154C435.251 6.60513 435.251 7.54872 435.251 8.49231C435.251 9.39301 435.251 10.2937 435.251 11.1944V45.035H428.962Z" fill="#71717a"/>
</svg>
