<svg width="112" height="24" viewBox="0 0 112 24" fill="none" xmlns="http://www.w3.org/2000/svg">
<path d="M7.33928 23.4684C5.82977 23.4684 4.53264 23.1304 3.44332 22.4499C2.354 21.7716 1.51361 20.7965 0.922131 19.5245C0.328373 18.2525 0.0314941 16.7452 0.0314941 15.0005C0.0314941 13.2352 0.328373 11.7166 0.922131 10.4583C1.51589 9.19995 2.35628 8.22711 3.44332 7.54885C4.53264 6.8706 5.82977 6.53261 7.33928 6.53261C8.67524 6.53261 9.8011 6.8706 10.7169 7.54885C11.6303 8.22939 12.3154 9.19995 12.7676 10.4583C13.2198 11.7166 13.4459 13.2352 13.4459 15.0005C13.4459 16.7475 13.2198 18.2548 12.7676 19.5245C12.3154 20.7988 11.6303 21.7716 10.7169 22.4499C9.8011 23.1304 8.67295 23.4684 7.33928 23.4684ZM8.6661 18.812C9.28955 18.812 9.85134 18.6521 10.3469 18.3278C10.8425 18.0036 11.2307 17.5582 11.5116 16.985C11.7902 16.4141 11.9318 15.7518 11.9318 14.9982C11.9318 14.2446 11.7902 13.5823 11.5116 13.0091C11.2307 12.4382 10.8425 11.9929 10.3469 11.6686C9.84905 11.3443 9.27813 11.1822 8.63185 11.1822C7.98557 11.1822 7.41464 11.3443 6.91909 11.6686C6.42353 11.9929 6.03073 12.4382 5.73842 13.0091C5.44839 13.5823 5.29082 14.2446 5.27027 14.9982C5.29082 15.7518 5.44839 16.4141 5.73842 16.985C6.03073 17.5582 6.42809 18.0036 6.93279 18.3278C7.43748 18.6521 8.01982 18.812 8.6661 18.812ZM11.9295 23.1122V20.0726V0.446594H16.9741V23.0779L11.9295 23.1099V23.1122Z" fill="#71717a"/>
<path d="M27.3171 23.4684C25.6386 23.4684 24.1496 23.1122 22.857 22.4019C21.5645 21.6894 20.5505 20.6983 19.8174 19.4263C19.0867 18.1543 18.719 16.679 18.719 14.9982C18.719 13.3174 19.0867 11.8399 19.8174 10.5702C20.5505 9.29815 21.569 8.30704 22.873 7.59453C24.177 6.88202 25.6797 6.52805 27.3833 6.52805C28.9156 6.52805 30.2927 6.89344 31.5213 7.6265C32.75 8.35728 33.7251 9.45345 34.4467 10.9082C35.1684 12.3629 35.5315 14.1578 35.5315 16.2908H30.4868C30.5097 14.9982 30.4069 13.9203 30.1785 13.0571C29.9524 12.1962 29.5916 11.543 29.0961 11.1023C28.5982 10.6615 27.9633 10.44 27.1892 10.44C26.415 10.44 25.7756 10.6181 25.28 10.9721C24.7845 11.3284 24.4236 11.8559 24.1976 12.5547C23.9692 13.2581 23.8573 14.1441 23.8573 15.222C23.8573 16.172 24.024 16.9485 24.3597 17.5514C24.6931 18.1566 25.1293 18.5973 25.6682 18.8759C26.2072 19.1568 26.801 19.2984 27.445 19.2984C28.2214 19.2984 28.8745 19.1203 29.4021 18.7663C29.9273 18.4101 30.3018 17.9625 30.5165 17.4235L35.0405 19.0061C34.6294 19.9995 34.0334 20.833 33.2478 21.5136C32.4599 22.1918 31.5556 22.6897 30.5325 23.0003C29.5094 23.3108 28.4361 23.4684 27.3148 23.4684H27.3171ZM21.9504 16.2908L21.9847 12.831H33.1382V16.2908H21.9527H21.9504Z" fill="#71717a"/>
<path d="M37.0569 23.0801V6.91622H41.8092L42.1015 9.88958V23.0801H37.0569ZM47.4682 14.8041C47.4682 13.9408 47.3723 13.258 47.1782 12.751C46.9841 12.2441 46.71 11.8741 46.3538 11.6366C45.9998 11.3991 45.5613 11.2712 45.0452 11.2484C44.0746 11.2278 43.3416 11.4904 42.846 12.0408C42.3505 12.5912 42.1038 13.427 42.1038 14.5483H40.5829C40.5829 12.8469 40.841 11.3945 41.3593 10.2002C41.8777 9.00579 42.5834 8.0946 43.4786 7.46887C44.3738 6.84543 45.4129 6.53256 46.5981 6.53256C48.5575 6.53256 50.0351 7.12632 51.0262 8.30927C52.0173 9.49678 52.5129 11.3374 52.5129 13.8381L47.4682 14.8086V14.8041ZM47.4682 23.0801V14.8041L52.5129 13.8335V23.0801H47.4682Z" fill="#71717a"/>
<path d="M53.262 11.1503V6.9163H64.5137V11.1503H53.262ZM61.4741 23.4684C59.5558 23.4684 58.1285 23.0117 57.1899 22.0937C56.2536 21.1779 55.7854 19.8671 55.7854 18.1657V1.87164H60.8278V16.9051C60.8278 17.5514 60.9466 18.0264 61.1841 18.3279C61.4216 18.6293 61.787 18.78 62.2802 18.78C62.4743 18.78 62.7027 18.7321 62.9608 18.6362C63.2188 18.538 63.4563 18.4147 63.6733 18.2639L65.4203 21.9498C64.9019 22.3791 64.283 22.7422 63.5614 23.0323C62.8397 23.3246 62.1455 23.4684 61.4764 23.4684H61.4741Z" fill="#71717a"/>
<path d="M66.9937 23.0802V6.91624H72.0383V23.0802H66.9937ZM70.7092 14.7059C70.7092 12.9611 71.0586 11.5064 71.762 10.3418C72.4631 9.17709 73.3446 8.30472 74.4111 7.72466C75.4798 7.14232 76.5943 6.85229 77.7589 6.85229V11.7645C76.7655 11.7645 75.8338 11.8741 74.9614 12.0888C74.0868 12.3057 73.3834 12.6323 72.8422 13.0753C72.3055 13.5184 72.0337 14.0824 72.0337 14.7721L70.7069 14.7082L70.7092 14.7059Z" fill="#71717a"/>
<path d="M86.5285 23.4684C84.85 23.4684 83.361 23.1122 82.0685 22.4019C80.7759 21.6894 79.7619 20.6983 79.0289 19.4263C78.2981 18.1543 77.9304 16.679 77.9304 14.9982C77.9304 13.3174 78.2981 11.8399 79.0289 10.5702C79.7619 9.29815 80.7805 8.30704 82.0844 7.59453C83.3884 6.88202 84.8911 6.52805 86.5947 6.52805C88.1271 6.52805 89.5041 6.89344 90.7328 7.6265C91.9614 8.35728 92.9365 9.45345 93.6582 10.9082C94.3798 12.3629 94.7429 14.1578 94.7429 16.2908H89.6982C89.7211 14.9982 89.6183 13.9203 89.39 13.0571C89.1639 12.1962 88.803 11.543 88.3075 11.1023C87.8096 10.6615 87.1748 10.44 86.4006 10.44C85.6264 10.44 84.987 10.6181 84.4914 10.9721C83.9959 11.3284 83.6351 11.8559 83.409 12.5547C83.1806 13.2581 83.0687 14.1441 83.0687 15.222C83.0687 16.172 83.2354 16.9485 83.5711 17.5514C83.9045 18.1566 84.3407 18.5973 84.8797 18.8759C85.4186 19.1568 86.0124 19.2984 86.6564 19.2984C87.4328 19.2984 88.086 19.1203 88.6135 18.7663C89.1387 18.4101 89.5133 17.9625 89.7279 17.4235L94.2519 19.0061C93.8409 19.9995 93.2448 20.833 92.4592 21.5136C91.6713 22.1918 90.767 22.6897 89.7439 23.0003C88.7208 23.3108 87.6475 23.4684 86.5262 23.4684H86.5285ZM81.1641 16.2908L81.1984 12.831H92.3519V16.2908H81.1641Z" fill="#71717a"/>
<path d="M104.435 23.4684C102.71 23.4684 101.174 23.1076 99.8262 22.3837C98.4788 21.6643 97.4283 20.6595 96.6747 19.3783C95.9188 18.0949 95.542 16.6356 95.542 14.9982C95.542 13.338 95.9188 11.8741 96.6747 10.5998C97.4283 9.32784 98.4674 8.33215 99.7942 7.60822C101.119 6.88886 102.644 6.52576 104.368 6.52576C106.029 6.52576 107.547 6.94595 108.927 7.78635C110.306 8.62675 111.297 9.84395 111.902 11.4402L107.116 13.0571C106.878 12.5387 106.485 12.1139 105.935 11.7782C105.387 11.4448 104.775 11.2781 104.108 11.2781C103.441 11.2781 102.852 11.4334 102.347 11.7463C101.843 12.0591 101.443 12.4953 101.153 13.0548C100.861 13.6143 100.717 14.2606 100.717 14.9959C100.717 15.7313 100.861 16.3707 101.153 16.9188C101.443 17.4692 101.854 17.9076 102.379 18.2296C102.907 18.5516 103.505 18.7138 104.174 18.7138C104.843 18.7138 105.446 18.5425 105.985 18.1954C106.522 17.8528 106.922 17.3984 107.18 16.8366L111.966 18.4534C111.341 20.0703 110.343 21.3103 108.975 22.1713C107.604 23.0345 106.09 23.4638 104.432 23.4638L104.435 23.4684Z" fill="#71717a"/>
<path d="M72.036 23.1121V14.9982L66.9937 23.1121H72.036Z" fill="#71717a"/>
</svg>
