<svg width="180" height="27" viewBox="0 0 180 27" fill="none" xmlns="http://www.w3.org/2000/svg">
<g clip-path="url(#clip0_1_124)">
<g >
<path d="M73.72 1.34647H69.067C68.9853 1.34647 68.9445 1.38728 68.9445 1.46892L61.5976 17.0199L54.2507 1.46892C54.2507 1.34647 54.1282 1.34647 54.1282 1.34647H49.4751C49.3527 1.34647 49.3527 1.46892 49.3527 1.46892L47.516 26.0812V26.2036H52.6588C52.7813 26.2036 52.7813 26.0812 52.7813 26.0812L53.6384 11.5097L58.7813 22.0403C58.7813 22.1628 58.9037 22.1628 58.9037 22.1628H64.169C64.2507 22.1628 64.2915 22.122 64.2915 22.0403L69.4343 11.5097L70.2915 26.0812C70.2915 26.2036 70.4139 26.2036 70.4139 26.2036H75.5568V26.0812L73.9649 1.46892C73.9649 1.46892 73.8425 1.34647 73.72 1.34647Z" fill="#71717a"/>
<path d="M85.5956 7.59209C84.2487 7.59209 83.0242 7.71454 81.9222 8.08188C80.8201 8.32678 79.7181 8.81658 78.7385 9.30637C78.616 9.30637 78.616 9.42882 78.616 9.55127L79.5956 13.1023C79.5956 13.1023 79.5956 13.2247 79.7181 13.2247H79.8405C80.4528 12.8574 81.1875 12.6125 82.0446 12.3676C82.9018 12.1227 83.7589 12.0003 84.616 12.0003C85.7181 12.0003 86.5752 12.2451 87.1875 12.8574C87.6773 13.4696 88.0446 14.3268 88.0446 15.4288V15.7962C87.4324 15.7962 86.8201 15.7962 86.0854 15.9186C85.2283 15.9186 84.4936 16.0411 83.7589 16.0411C81.7997 16.1635 80.2079 16.6533 79.1058 17.5105C78.0038 18.3676 77.3915 19.7145 77.3915 21.4288C77.3915 22.1635 77.514 22.8982 77.7589 23.5105C78.0038 24.1227 78.3711 24.7349 78.8609 25.2247C79.3507 25.7145 79.8405 26.0819 80.5752 26.3268C81.1875 26.5717 81.9222 26.6941 82.7793 26.6941C84.0038 26.6941 85.1058 26.4492 86.0854 25.9594C86.9426 25.5921 87.5548 25.1023 88.1671 24.6125V26.0819C88.1671 26.2043 88.2895 26.2043 88.2895 26.2043H93.1875C93.3099 26.2043 93.3099 26.0819 93.3099 26.0819V15.5513C93.3099 12.9798 92.5752 11.0207 91.2283 9.67372C90.0038 8.20433 88.0446 7.59209 85.5956 7.59209ZM88.0446 19.1023V21.6737C87.5548 22.0411 87.065 22.286 86.5752 22.5309C85.963 22.7758 85.3507 22.8982 84.616 22.8982C84.0038 22.8982 83.514 22.7758 83.1467 22.5309C82.7793 22.286 82.6569 21.9186 82.6569 21.3064C82.6569 20.6941 82.9018 20.3268 83.2691 20.0819C83.6364 19.837 84.2487 19.5921 84.9834 19.4696C85.4732 19.3472 85.963 19.3472 86.5752 19.3472C87.1875 19.2247 87.6773 19.1023 88.0446 19.1023Z" fill="#71717a"/>
<path d="M107.887 7.95893C107.397 7.83648 106.908 7.71404 106.295 7.71404C104.948 7.71404 103.969 8.08138 103.234 8.69363C102.622 9.18342 102.254 9.67322 101.887 10.4079V8.08138C101.887 7.95893 101.765 7.95893 101.765 7.95893H96.8667C96.7442 7.95893 96.7442 8.08138 96.7442 8.08138V26.0814C96.7442 26.2038 96.8667 26.2038 96.8667 26.2038H101.887C102.01 26.2038 102.01 26.0814 102.01 26.0814V14.8161C102.499 14.0814 103.112 13.5916 103.846 13.2242C104.703 12.8569 105.683 12.612 106.908 12.612H107.765C107.887 12.612 107.887 12.4895 107.887 12.4895V8.08138C108.01 8.08138 108.01 7.95893 107.887 7.95893Z" fill="#71717a"/>
<path d="M120.13 17.0204L126.375 8.32653V8.08163C126.375 7.95918 126.252 7.95918 126.252 7.95918H120.62C120.62 7.95918 120.497 7.95918 120.497 8.08163L114.865 16.0408V0.122449C114.865 0 114.742 0 114.742 0H109.599C109.477 0 109.477 0.122449 109.477 0.122449V26.2041C109.477 26.3265 109.599 26.3265 109.599 26.3265H114.62C114.742 26.3265 114.742 26.2041 114.742 26.2041V18L120.865 26.3265L120.987 26.449H126.987C127.069 26.449 127.109 26.4082 127.109 26.3265V26.0816L120.13 17.0204Z" fill="#71717a"/>
<path d="M141.067 9.79617C140.455 9.06147 139.598 8.57168 138.741 8.20433C137.761 7.83698 136.659 7.59209 135.557 7.59209C134.21 7.59209 132.863 7.83698 131.761 8.32678C130.659 8.81658 129.68 9.42882 128.945 10.286C128.21 11.1431 127.598 12.1227 127.108 13.3472C126.741 14.5717 126.496 15.7962 126.496 17.2656C126.496 18.6125 126.741 19.9594 127.108 21.0615C127.476 22.286 128.21 23.2656 128.945 24.0003C129.68 24.7349 130.782 25.4696 131.884 25.9594C133.108 26.4492 134.455 26.6941 135.924 26.6941C137.149 26.6941 138.373 26.5717 139.476 26.3268C140.578 26.0819 141.68 25.7145 142.537 25.3472C142.659 25.3472 142.659 25.2247 142.659 25.1023L142.047 21.6737C142.047 21.6737 142.047 21.5513 141.924 21.5513H141.802C141.067 21.9186 140.333 22.1635 139.353 22.286C138.496 22.4084 137.516 22.5309 136.537 22.5309C134.945 22.5309 133.72 22.1635 132.986 21.4288C132.251 20.6941 131.884 19.7145 131.884 18.6125H142.292C142.373 18.6125 142.414 18.5717 142.414 18.49C142.537 18.1227 142.659 17.6329 142.659 17.0207C142.782 16.5309 142.782 16.0411 142.782 15.5513C142.782 14.3268 142.659 13.2247 142.292 12.2451C142.169 11.2656 141.68 10.4084 141.067 9.79617ZM135.19 11.388C136.169 11.388 136.904 11.7554 137.271 12.3676C137.639 12.9798 137.884 13.837 137.761 14.8166H132.006C132.129 13.837 132.373 12.9798 132.986 12.3676C133.476 11.6329 134.21 11.388 135.19 11.388Z" fill="#71717a"/>
<path d="M156.737 7.95894H151.594V3.55078C151.594 3.42833 151.472 3.42833 151.472 3.42833H146.329C146.207 3.42833 146.207 3.55078 146.207 3.55078V7.95894H143.513C143.39 7.95894 143.39 8.08139 143.39 8.08139V12.1222C143.39 12.2447 143.513 12.2447 143.513 12.2447H146.207V19.9589C146.207 20.9385 146.329 21.7957 146.574 22.5304C146.819 23.3875 147.186 23.9998 147.676 24.612C148.166 25.2242 148.778 25.714 149.635 26.0814C150.37 26.4487 151.349 26.5712 152.451 26.5712C153.309 26.5712 154.043 26.4487 154.9 26.3263C155.758 26.2038 156.37 25.9589 156.982 25.714C157.104 25.714 157.104 25.5916 157.104 25.4691L156.737 21.9181C156.737 21.9181 156.737 21.7957 156.615 21.7957H156.492C155.635 22.0406 154.778 22.163 153.798 22.163C152.941 22.163 152.451 21.9181 152.084 21.5508C151.839 21.061 151.594 20.4487 151.594 19.714V12.2447H156.737C156.86 12.2447 156.86 12.1222 156.86 12.1222V8.08139C156.982 8.08139 156.86 7.95894 156.737 7.95894Z" fill="#71717a"/>
<path d="M179.518 25.9592L171.313 13.7143L179.273 1.59183V1.34694L179.15 1.22449H173.518C173.437 1.22449 173.395 1.2653 173.395 1.34694L168.375 9.42857L163.354 1.34694L163.232 1.22449H157.599C157.518 1.22449 157.477 1.2653 157.477 1.34694V1.59183L165.436 13.7143L157.232 25.9592V26.2041L157.354 26.3265H162.987C163.069 26.3265 163.109 26.2858 163.109 26.2041L168.252 18.1224L173.395 26.2041L173.518 26.3265H179.15C179.232 26.3265 179.273 26.2858 179.273 26.2041C179.437 26.1224 179.518 26.0409 179.518 25.9592Z" fill="#71717a"/>
<path d="M26.9483 0.48956L26.8259 0.367111C26.7442 0.367111 26.7034 0.407927 26.7034 0.48956L21.1932 9.79568L15.683 0.48956L15.5606 0.367111C15.4789 0.367111 15.4381 0.407927 15.4381 0.48956L0.621811 25.9589V26.0814L0.744261 26.2038H7.3565C7.43814 26.2038 7.47895 26.1631 7.47895 26.0814L15.4381 12.2447L17.5198 15.9181L11.8871 25.9589V26.0814L12.0096 26.2038H18.4993C18.581 26.2038 18.6218 26.1631 18.6218 26.0814L20.8259 22.0406L23.2749 26.0814L23.3973 26.2038H30.0096C30.0912 26.2038 30.132 26.1631 30.132 26.0814V25.9589L24.3769 15.9181L26.4585 12.3671L34.4177 26.0814L34.5402 26.2038H41.1524C41.2341 26.2038 41.2749 26.1631 41.2749 26.0814V25.9589L26.9483 0.48956Z" fill="#71717a"/>
</g>
</g>
<defs>
<clipPath id="clip0_1_124">
<rect width="180" height="26.9388" fill="#71717a"/>
</clipPath>
</defs>
</svg>
